<?xml version="1.0" standalone="no"?>
<!DOCTYPE svg PUBLIC "-//W3C//DTD SVG 20010904//EN"
 "http://www.w3.org/TR/2001/REC-SVG-20010904/DTD/svg10.dtd">
<svg version="1.0" xmlns="http://www.w3.org/2000/svg"
 width="512.000000pt" height="512.000000pt" viewBox="0 0 512.000000 512.000000"
 preserveAspectRatio="xMidYMid meet">

<g transform="translate(0.000000,512.000000) scale(0.100000,-0.100000)"
fill="#000000" stroke="none">
<path d="M4067 4163 c-3 -5 3 -22 14 -39 30 -46 25 -62 -23 -74 -24 -6 -61
-16 -83 -22 -22 -7 -80 -12 -130 -12 l-90 -1 -11 -34 c-11 -35 -41 -60 -146
-120 -71 -40 -77 -49 -47 -72 23 -17 23 -18 4 -39 -34 -38 -82 -61 -109 -54
-22 5 -34 -2 -76 -45 -27 -27 -61 -53 -77 -56 -117 -26 -131 -35 -194 -118
-56 -74 -60 -83 -54 -118 4 -22 8 -39 10 -39 1 0 22 9 46 20 46 21 130 25 204
11 l40 -8 -53 -16 c-30 -9 -81 -22 -115 -29 -86 -17 -396 -14 -592 6 -260 26
-444 30 -562 12 -165 -25 -283 -73 -384 -158 -44 -35 -51 -38 -112 -38 -60 0
-102 -7 -331 -56 -74 -16 -86 -16 -165 0 -109 20 -149 20 -236 -3 -81 -21
-102 -30 -170 -82 -57 -43 -211 -90 -357 -109 -86 -12 -87 -12 -139 16 -28 16
-66 45 -84 66 -17 21 -35 38 -40 38 -4 0 -5 -25 -2 -55 9 -88 61 -151 186
-224 43 -26 59 -30 92 -25 35 6 39 4 39 -14 0 -15 -15 -29 -52 -49 -93 -50
-70 -72 79 -76 83 -2 108 2 164 22 l66 25 91 -58 c72 -45 104 -59 150 -66 44
-6 78 -20 128 -52 58 -36 77 -43 119 -43 85 0 139 36 205 134 60 89 79 106
114 97 23 -6 55 -64 70 -128 3 -16 20 -49 36 -75 50 -78 37 -174 -34 -244 -14
-14 -70 -45 -124 -68 -161 -68 -181 -101 -237 -378 -9 -44 -22 -73 -43 -98
-17 -19 -34 -52 -38 -72 -4 -21 -21 -65 -38 -97 -27 -51 -31 -69 -29 -127 l1
-68 -33 -11 c-59 -19 -69 -40 -56 -112 6 -34 17 -69 25 -77 13 -13 20 -11 56
14 23 16 47 36 53 45 7 9 20 19 30 23 14 5 16 11 9 24 -8 13 0 24 37 53 81 64
99 100 107 215 4 55 13 112 20 127 8 15 14 37 14 50 0 26 72 156 97 175 9 7
29 13 44 13 39 0 184 55 249 94 71 43 208 106 230 106 26 0 30 -19 30 -152 l0
-121 127 -121 c127 -122 213 -225 213 -257 0 -34 71 -153 124 -209 45 -47 56
-66 66 -113 8 -42 16 -58 32 -63 30 -9 104 5 130 25 20 17 21 21 10 60 -9 27
-22 46 -41 55 -17 9 -40 39 -61 78 -18 35 -47 81 -65 103 -38 47 -164 235
-206 306 l-29 50 0 192 c0 178 2 202 29 312 16 66 32 136 35 156 10 55 26 64
84 48 90 -25 226 -79 256 -103 128 -97 345 -146 647 -146 150 0 147 2 156
-111 5 -64 10 -76 50 -126 l43 -56 0 -115 0 -115 -33 -31 c-42 -39 -197 -108
-260 -114 -35 -3 -51 -10 -59 -26 -17 -32 -30 -36 -59 -19 -36 22 -54 7 -74
-60 -16 -53 -20 -143 -7 -150 19 -13 91 26 133 72 35 38 55 51 85 56 96 15
132 29 194 74 36 27 75 54 88 60 12 7 64 47 115 89 86 72 90 77 65 80 -30 4
-34 16 -17 59 6 15 12 43 15 60 2 18 15 89 29 157 14 68 25 135 25 150 0 25 1
26 65 26 75 0 59 12 203 -152 101 -116 129 -168 162 -300 23 -88 40 -123 97
-190 48 -58 69 -103 83 -178 16 -82 24 -96 60 -115 27 -14 30 -20 30 -64 0
-33 6 -56 19 -72 18 -22 27 -24 111 -24 76 0 95 3 103 17 15 23 -5 58 -70 125
-33 34 -53 63 -53 77 0 13 -23 54 -51 92 -58 78 -99 157 -99 194 -1 59 -33
171 -71 247 -35 70 -44 102 -59 207 -23 159 -43 226 -76 256 -44 42 -48 57
-23 96 45 74 67 430 34 554 l-15 55 60 136 c33 74 70 175 82 223 l23 88 49 20
c27 10 63 29 79 40 l30 22 51 -27 c91 -48 130 -58 226 -64 91 -6 96 -8 144
-45 55 -44 71 -44 141 -3 76 45 78 48 81 111 4 80 -1 90 -49 119 -23 13 -80
69 -127 126 -47 56 -132 146 -190 200 -58 55 -121 123 -140 151 -38 57 -59 67
-96 47 -22 -11 -30 -8 -81 27 -41 28 -68 39 -97 41 -23 0 -77 17 -122 37 -89
40 -139 53 -147 39z"/>
</g>
</svg>
